<?xml version="1.0" encoding="UTF-8" standalone="no"?>
<svg
   width="197"
   height="40"
   viewBox="0 0 197 40"
   fill="none"
   version="1.1"
   id="svg26"
   xmlns="http://www.w3.org/2000/svg"
   xmlns:svg="http://www.w3.org/2000/svg">
  <defs
     id="defs26" />
  <path
     d="m 24.5585,11.7151 v 1.8003 H 3.36073 v 6.704 H 25.1342 v 1.7988 H 0.375977 V 3.55713 H 25.207 V 5.35586 H 3.36073 v 6.35924 z"
     fill="#41bc4e"
     id="path1" />
  <path
     d="m 66.484,15.8558 c 0,1.1992 -0.1632,2.2057 -0.4853,3.0196 -0.3243,0.814 -0.8869,1.4664 -1.6898,1.9603 -0.803,0.4924 -1.8928,0.8466 -3.2716,1.0594 -1.3788,0.2128 -14.7252,0.3199 -16.8342,0.3199 -2.109,0 -3.7392,-0.1196 -5.1069,-0.3572 -1.3656,-0.2392 -2.4686,-0.699 -3.3091,-1.3809 -0.8383,-0.6819 -1.4383,-1.6356 -1.7979,-2.8596 -0.3596,-1.224 -0.5383,-2.8146 -0.5383,-4.7702 0,-1.9557 0.1809,-3.5245 0.5383,-4.75782 0.3596,-1.23177 0.953,-2.20104 1.7803,-2.90779 0.8272,-0.70675 1.9302,-1.18673 3.309,-1.44147 1.3766,-0.25474 3.0862,-0.38211 5.1224,-0.38211 2.1575,0 15.4929,0.11961 16.7989,0.35726 1.306,0.23766 2.3252,0.60424 3.0554,1.09663 0.7302,0.4924 1.2353,1.12149 1.5111,1.88572 0.2757,0.76422 0.4611,1.66359 0.5581,2.69809 H 63.2125 C 63.0933,8.591 62.9301,7.91686 62.7271,7.37476 62.5242,6.83266 62.169,6.39618 61.666,6.06843 61.1631,5.74068 60.4483,5.50458 59.5262,5.36633 58.6041,5.22654 45.7584,5.15664 44.2009,5.15664 c -1.5575,0 -2.7994,0.10252 -3.7944,0.30755 -0.9949,0.20504 -1.7846,0.59181 -2.3737,1.15877 -0.5868,0.56696 -1.0015,1.34827 -1.2397,2.34238 -0.2405,0.99412 -0.3596,2.28806 -0.3596,3.88176 0,1.5936 0.1147,2.8844 0.3419,3.8692 0.2272,0.9864 0.6353,1.7537 1.2221,2.3051 0.5869,0.5499 1.3832,0.9212 2.3914,1.1091 1.0059,0.1895 2.2766,0.2827 3.812,0.2827 1.5354,0 14.4804,-0.0652 15.4863,-0.1973 1.006,-0.1304 1.7979,-0.3696 2.3737,-0.7145 0.5758,-0.3448 0.9707,-0.8093 1.1869,-1.3917 0.2161,-0.5841 0.3242,-1.3359 0.3242,-2.2554 h 2.912 z"
     fill="#41bc4e"
     id="path2" />
  <path
     d="m 77.7125,12.7998 c 0,1.6263 0.0905,2.9373 0.2692,3.9314 0.1787,0.9942 0.5647,1.7677 1.1515,2.3176 0.5868,0.5498 1.4273,0.9164 2.5171,1.0966 1.3788,0.2268 6.7924,0.3231 11.3963,0.3107 v 1.7552 c -5.2084,0.0357 -10.9595,-0.0885 -12.6008,-0.365 -1.4626,-0.2454 -2.6141,-0.7145 -3.4524,-1.4042 -0.8383,-0.6897 -1.4273,-1.6465 -1.7626,-2.8705 -0.3354,-1.224 -0.503,-2.8146 -0.503,-4.7702 0,-1.9556 0.1676,-3.56951 0.503,-4.79351 0.3353,-1.22401 0.9287,-2.18084 1.7802,-2.87051 0.8207,-0.66482 1.9259,-1.12459 3.3135,-1.37778 v 2.00376 c -0.503,0.19261 -0.9177,0.44269 -1.2464,0.75335 -0.5758,0.54211 -0.9464,1.3141 -1.1141,2.31753 -0.1676,1.00189 -0.2515,2.32376 -0.2515,3.96716 z m 18.555,7.6237 c 1.4449,-0.0249 2.6119,-0.0653 3.2516,-0.1181 0.8869,-0.073 1.6369,-0.2144 2.2479,-0.4194 0.611,-0.205 1.103,-0.4846 1.476,-0.8388 0.371,-0.3526 0.66,-0.8139 0.862,-1.3809 0.203,-0.5654 0.342,-1.2488 0.413,-2.0457 0.071,-0.7968 0.108,-1.7381 0.108,-2.8223 0,-0.4474 -0.007,-0.873 -0.018,-1.2722 h 2.979 c 0.015,0.4054 0.024,0.8295 0.024,1.2722 0,1.9556 -0.161,3.5462 -0.485,4.7702 -0.323,1.224 -0.905,2.1808 -1.743,2.8705 -0.839,0.6897 -1.99,1.1588 -3.453,1.4042 -0.926,0.1553 -3.0638,0.2625 -5.6603,0.32 V 20.4219 Z M 104.436,9.25674 C 104.417,9.10918 104.394,8.96783 104.372,8.83114 104.205,7.82926 103.832,7.05571 103.258,6.51361 102.683,5.9715 101.851,5.60958 100.759,5.4294 98.8441,5.11253 88.2309,5.0768 83.5475,5.28183 V 3.49398 c 5.568,-0.2361 16.018,-0.16931 18.3965,0.23455 1.449,0.24542 2.594,0.71452 3.434,1.40574 0.839,0.68967 1.421,1.64651 1.743,2.87051 0.102,0.38056 0.185,0.7984 0.254,1.25196 h -2.941 z"
     fill="#41bc4e"
     id="path3" />
  <path
     d="m 118.838,20.2194 h 19.916 v 1.7988 H 115.853 V 3.55713 h 2.985 z"
     fill="#ffffff"
     id="path4" />
  <path
     d="m 150.137,22.0182 h -2.985 V 3.55713 h 2.985 z"
     fill="#ffffff"
     id="path5" />
  <path
     d="m 174.198,22.0182 h -2.985 V 5.35586 H 158.641 V 3.55713 h 28.369 v 1.79873 h -12.812 z"
     fill="#ffffff"
     id="path6" />
  <path
     d="M 0.276611,28.3228 H 193.225"
     stroke="#41bc4e"
     stroke-width="1.42"
     stroke-miterlimit="22.93"
     id="path8" />
  <path
     d="m 182.559,33.1354 v 6.6934 h -0.92 v -7.3019 h 1.534 l 4.292,6.3892 4.292,-6.3892 h 1.468 v 7.3019 h -0.921 v -6.5936 l -4.373,6.5936 H 187 Z"
     fill="#ffffff"
     id="path9" />
  <path
     d="m 172.161,39.8288 v -7.3019 h 7.366 v 0.7606 h -6.445 v 2.434 h 6.139 v 0.7606 h -6.139 v 2.5861 h 6.445 v 0.7606 z"
     fill="#ffffff"
     id="path10" />
  <path
     d="m 169.742,32.5269 v 0.7606 h -3.683 v 6.5413 h -0.92 v -6.5413 h -3.683 v -0.7606 z"
     fill="#ffffff"
     id="path11" />
  <path
     d="m 156.006,35.7212 c 0.506,0 0.939,0.0206 1.3,0.0618 0.361,0.0412 0.665,0.103 0.911,0.1854 0.25,0.0793 0.448,0.1791 0.595,0.2995 0.147,0.1205 0.261,0.2583 0.34,0.4136 0.08,0.1522 0.132,0.3233 0.154,0.5134 0.025,0.1902 0.038,0.3962 0.038,0.618 0,0.2219 -0.021,0.4311 -0.062,0.6276 -0.038,0.1933 -0.109,0.3708 -0.211,0.5324 -0.102,0.1616 -0.241,0.3058 -0.417,0.4326 -0.176,0.1268 -0.4,0.2345 -0.672,0.3233 -0.271,0.0887 -0.599,0.1553 -0.983,0.1996 -0.38,0.0476 -0.826,0.0713 -1.338,0.0713 h -1.227 c -0.461,0 -0.864,-0.0174 -1.209,-0.0523 -0.345,-0.0348 -0.643,-0.0871 -0.892,-0.1568 -0.249,-0.0729 -0.456,-0.1633 -0.619,-0.271 -0.163,-0.1109 -0.294,-0.2393 -0.393,-0.3851 -0.096,-0.1489 -0.163,-0.3169 -0.201,-0.5039 -0.039,-0.1901 -0.058,-0.3993 -0.058,-0.6275 h 0.921 c 0,0.2852 0.041,0.5087 0.125,0.6703 0.083,0.1616 0.22,0.2836 0.412,0.366 0.192,0.0793 0.443,0.13 0.753,0.1522 0.313,0.019 0.7,0.0285 1.161,0.0285 h 1.227 c 0.537,0 0.983,-0.0254 1.338,-0.0761 0.355,-0.0507 0.638,-0.1315 0.849,-0.2424 0.211,-0.1109 0.36,-0.2551 0.446,-0.4326 0.086,-0.1807 0.129,-0.3993 0.129,-0.6561 0,-0.2567 -0.03,-0.4706 -0.091,-0.6417 -0.057,-0.1712 -0.174,-0.3074 -0.35,-0.4089 -0.172,-0.1014 -0.417,-0.1727 -0.733,-0.2139 -0.317,-0.0444 -0.731,-0.0665 -1.243,-0.0665 h -1.266 c -0.562,0 -1.045,-0.0206 -1.448,-0.0618 -0.399,-0.0412 -0.735,-0.0999 -1.007,-0.1759 -0.272,-0.0793 -0.489,-0.1759 -0.652,-0.29 -0.163,-0.1173 -0.288,-0.2504 -0.374,-0.3993 -0.083,-0.149 -0.138,-0.3138 -0.163,-0.4944 -0.026,-0.1839 -0.039,-0.3819 -0.039,-0.5943 0,-0.2218 0.02,-0.4278 0.058,-0.618 0.041,-0.1901 0.117,-0.3613 0.225,-0.5134 0.109,-0.1553 0.258,-0.2932 0.446,-0.4136 0.189,-0.1204 0.43,-0.2203 0.724,-0.2995 0.298,-0.0824 0.654,-0.1442 1.07,-0.1854 0.416,-0.0412 0.905,-0.0618 1.467,-0.0618 h 0.921 c 0.461,0 0.863,0.0174 1.209,0.0523 0.345,0.0317 0.642,0.084 0.892,0.1569 0.249,0.0697 0.455,0.1584 0.618,0.2662 0.167,0.1046 0.298,0.2314 0.393,0.3803 0.1,0.1458 0.168,0.3122 0.207,0.4992 0.038,0.187 0.057,0.3945 0.057,0.6227 h -0.921 c 0,-0.2852 -0.041,-0.5086 -0.124,-0.6703 -0.083,-0.1616 -0.221,-0.282 -0.413,-0.3613 -0.191,-0.0824 -0.444,-0.1331 -0.757,-0.1521 -0.314,-0.0222 -0.7,-0.0333 -1.161,-0.0333 h -0.921 c -0.613,0 -1.119,0.0222 -1.515,0.0666 -0.397,0.0412 -0.71,0.1125 -0.94,0.2139 -0.23,0.1014 -0.39,0.2377 -0.48,0.4088 -0.089,0.1712 -0.134,0.3851 -0.134,0.6418 0,0.1585 0.011,0.2995 0.034,0.4231 0.022,0.1236 0.067,0.233 0.134,0.328 0.07,0.0919 0.168,0.1696 0.293,0.233 0.124,0.0634 0.289,0.1156 0.493,0.1568 0.205,0.0412 0.454,0.0714 0.749,0.0904 0.297,0.0158 0.65,0.0237 1.059,0.0237 z"
     fill="#ffffff"
     id="path12" />
  <path
     d="m 139.623,32.5269 h 1.227 l 3.377,3.5749 3.376,-3.5749 h 1.227 l -4.143,4.2594 v 3.0425 h -0.921 v -3.0425 z"
     fill="#ffffff"
     id="path13" />
  <path
     d="m 134.173,35.7212 c 0.506,0 0.939,0.0206 1.3,0.0618 0.361,0.0412 0.665,0.103 0.911,0.1854 0.25,0.0793 0.448,0.1791 0.595,0.2995 0.147,0.1205 0.26,0.2583 0.34,0.4136 0.08,0.1522 0.132,0.3233 0.154,0.5134 0.025,0.1902 0.038,0.3962 0.038,0.618 0,0.2219 -0.021,0.4311 -0.062,0.6276 -0.038,0.1933 -0.109,0.3708 -0.211,0.5324 -0.102,0.1616 -0.241,0.3058 -0.417,0.4326 -0.176,0.1268 -0.4,0.2345 -0.672,0.3233 -0.271,0.0887 -0.599,0.1553 -0.983,0.1996 -0.38,0.0476 -0.826,0.0713 -1.338,0.0713 h -1.227 c -0.461,0 -0.864,-0.0174 -1.209,-0.0523 -0.345,-0.0348 -0.643,-0.0871 -0.892,-0.1568 -0.249,-0.0729 -0.456,-0.1633 -0.619,-0.271 -0.163,-0.1109 -0.294,-0.2393 -0.393,-0.3851 -0.096,-0.1489 -0.163,-0.3169 -0.201,-0.5039 -0.039,-0.1901 -0.058,-0.3993 -0.058,-0.6275 h 0.921 c 0,0.2852 0.041,0.5087 0.125,0.6703 0.083,0.1616 0.22,0.2836 0.412,0.366 0.192,0.0793 0.443,0.13 0.753,0.1522 0.313,0.019 0.7,0.0285 1.161,0.0285 h 1.227 c 0.537,0 0.983,-0.0254 1.338,-0.0761 0.355,-0.0507 0.638,-0.1315 0.849,-0.2424 0.211,-0.1109 0.36,-0.2551 0.446,-0.4326 0.086,-0.1807 0.129,-0.3993 0.129,-0.6561 0,-0.2567 -0.03,-0.4706 -0.091,-0.6417 -0.057,-0.1712 -0.174,-0.3074 -0.35,-0.4089 -0.172,-0.1014 -0.417,-0.1727 -0.733,-0.2139 -0.317,-0.0444 -0.731,-0.0665 -1.243,-0.0665 h -1.266 c -0.562,0 -1.045,-0.0206 -1.448,-0.0618 -0.399,-0.0412 -0.735,-0.0999 -1.007,-0.1759 -0.272,-0.0793 -0.489,-0.1759 -0.652,-0.29 -0.163,-0.1173 -0.288,-0.2504 -0.374,-0.3993 -0.083,-0.149 -0.138,-0.3138 -0.163,-0.4944 -0.026,-0.1839 -0.039,-0.3819 -0.039,-0.5943 0,-0.2218 0.02,-0.4278 0.058,-0.618 0.041,-0.1901 0.117,-0.3613 0.225,-0.5134 0.109,-0.1553 0.258,-0.2932 0.446,-0.4136 0.189,-0.1204 0.43,-0.2203 0.724,-0.2995 0.298,-0.0824 0.654,-0.1442 1.07,-0.1854 0.416,-0.0412 0.905,-0.0618 1.467,-0.0618 h 0.921 c 0.46,0 0.863,0.0174 1.209,0.0523 0.345,0.0317 0.642,0.084 0.892,0.1569 0.249,0.0697 0.455,0.1584 0.618,0.2662 0.166,0.1046 0.298,0.2314 0.393,0.3803 0.1,0.1458 0.168,0.3122 0.207,0.4992 0.038,0.187 0.057,0.3945 0.057,0.6227 h -0.921 c 0,-0.2852 -0.041,-0.5086 -0.124,-0.6703 -0.083,-0.1616 -0.221,-0.282 -0.413,-0.3613 -0.191,-0.0824 -0.444,-0.1331 -0.757,-0.1521 -0.314,-0.0222 -0.701,-0.0333 -1.161,-0.0333 h -0.921 c -0.613,0 -1.119,0.0222 -1.515,0.0666 -0.397,0.0412 -0.71,0.1125 -0.94,0.2139 -0.23,0.1014 -0.39,0.2377 -0.48,0.4088 -0.089,0.1712 -0.134,0.3851 -0.134,0.6418 0,0.1585 0.011,0.2995 0.034,0.4231 0.022,0.1236 0.067,0.233 0.134,0.328 0.07,0.0919 0.168,0.1696 0.293,0.233 0.124,0.0634 0.289,0.1156 0.493,0.1568 0.205,0.0412 0.454,0.0714 0.749,0.0904 0.297,0.0158 0.65,0.0237 1.059,0.0237 z"
     fill="#ffffff"
     id="path14" />
  <path
     d="m 115.401,39.8288 h -0.921 v -7.3019 h 1.616 l 6.752,6.3892 v -6.3892 h 0.921 v 7.3019 h -1.228 l -7.14,-6.5413 z"
     fill="#ffffff"
     id="path15" />
  <path
     d="m 108.69,32.3745 c 0.562,0 1.035,0.0349 1.419,0.1046 0.387,0.0666 0.705,0.1696 0.954,0.309 0.25,0.1363 0.442,0.309 0.576,0.5182 0.134,0.2091 0.232,0.4548 0.292,0.7368 0.064,0.2821 0.101,0.6006 0.111,0.9556 0.013,0.3549 0.019,0.7479 0.019,1.1789 0,0.431 -0.006,0.824 -0.019,1.179 -0.01,0.3549 -0.047,0.6734 -0.111,0.9555 -0.06,0.2821 -0.158,0.5277 -0.292,0.7369 -0.134,0.2091 -0.326,0.3834 -0.576,0.5229 -0.249,0.1363 -0.567,0.2377 -0.954,0.3042 -0.384,0.0698 -0.857,0.1046 -1.419,0.1046 h -2.772 c -0.563,0 -1.038,-0.0348 -1.425,-0.1046 -0.383,-0.0665 -0.7,-0.1679 -0.949,-0.3042 -0.249,-0.1395 -0.443,-0.3138 -0.58,-0.5229 -0.135,-0.2092 -0.234,-0.4548 -0.298,-0.7369 -0.06,-0.2821 -0.096,-0.6006 -0.105,-0.9555 -0.01,-0.355 -0.015,-0.748 -0.015,-1.179 0,-0.431 0.005,-0.824 0.015,-1.1789 0.009,-0.355 0.045,-0.6735 0.105,-0.9556 0.064,-0.282 0.163,-0.5277 0.298,-0.7368 0.137,-0.2092 0.331,-0.3819 0.58,-0.5182 0.249,-0.1394 0.566,-0.2424 0.949,-0.309 0.387,-0.0697 0.862,-0.1046 1.425,-0.1046 z m 0,6.8456 c 0.406,0 0.748,-0.0111 1.026,-0.0333 0.281,-0.0253 0.513,-0.0745 0.695,-0.1474 0.182,-0.0728 0.323,-0.1774 0.422,-0.3137 0.099,-0.1363 0.171,-0.3169 0.216,-0.5419 0.045,-0.2251 0.07,-0.5008 0.077,-0.8272 0.009,-0.3296 0.014,-0.7226 0.014,-1.179 0,-0.4564 -0.005,-0.8478 -0.014,-1.1742 -0.007,-0.3296 -0.032,-0.6069 -0.077,-0.8319 -0.045,-0.225 -0.117,-0.4057 -0.216,-0.542 -0.099,-0.1362 -0.24,-0.2408 -0.422,-0.3137 -0.179,-0.0729 -0.409,-0.1205 -0.69,-0.1426 -0.278,-0.0254 -0.622,-0.0381 -1.031,-0.0381 h -2.772 c -0.409,0 -0.755,0.0127 -1.036,0.0381 -0.278,0.0221 -0.508,0.0697 -0.691,0.1426 -0.182,0.0729 -0.323,0.1775 -0.422,0.3137 -0.099,0.1363 -0.171,0.317 -0.216,0.542 -0.044,0.225 -0.07,0.5023 -0.076,0.8319 -0.007,0.3264 -0.01,0.7178 -0.01,1.1742 0,0.4564 0.003,0.8494 0.01,1.179 0.009,0.3264 0.037,0.6021 0.081,0.8272 0.045,0.225 0.115,0.4056 0.211,0.5419 0.099,0.1363 0.24,0.2409 0.422,0.3137 0.183,0.0729 0.413,0.1221 0.691,0.1474 0.281,0.0222 0.627,0.0333 1.036,0.0333 z"
     fill="#ffffff"
     id="path16" />
  <path
     d="m 99.2073,32.5269 h 0.9207 v 7.3019 h -0.9207 z"
     fill="#ffffff"
     id="path17" />
  <path
     d="m 96.7884,32.5269 v 0.7606 h -3.6831 v 6.5413 h -0.9208 v -6.5413 h -3.683 v -0.7606 z"
     fill="#ffffff"
     id="path18" />
  <path
     d="m 85.4647,34.8085 c 0,-0.3803 -0.0416,-0.6814 -0.1247,-0.9032 -0.0831,-0.2219 -0.2206,-0.3899 -0.4124,-0.504 -0.1919,-0.114 -0.4444,-0.1869 -0.7578,-0.2186 -0.3101,-0.0317 -0.6953,-0.0476 -1.1557,-0.0476 h -2.1533 c -0.4092,0 -0.7545,0.0127 -1.0358,0.0381 -0.2782,0.0221 -0.5084,0.0697 -0.6906,0.1426 -0.1822,0.0729 -0.3229,0.1775 -0.422,0.3137 -0.0991,0.1363 -0.1711,0.317 -0.2158,0.542 -0.0448,0.225 -0.0703,0.5023 -0.0767,0.8319 -0.0064,0.3264 -0.0096,0.7178 -0.0096,1.1742 0,0.4564 0.0032,0.8494 0.0096,1.179 0.0095,0.3264 0.0367,0.6021 0.0815,0.8272 0.0447,0.225 0.1151,0.4056 0.211,0.5419 0.0991,0.1363 0.2398,0.2409 0.422,0.3137 0.1822,0.0729 0.4124,0.1221 0.6906,0.1474 0.2813,0.0222 0.6266,0.0333 1.0358,0.0333 h 2.1533 c 0.3581,0 0.6666,-0.0095 0.9256,-0.0285 0.2589,-0.019 0.4795,-0.0539 0.6618,-0.1046 0.1822,-0.0507 0.3293,-0.1204 0.4412,-0.2092 0.1119,-0.0887 0.1982,-0.1996 0.2589,-0.3328 0.064,-0.1362 0.1071,-0.2979 0.1295,-0.4848 0.0224,-0.1902 0.0336,-0.4121 0.0336,-0.6656 h 0.9207 c 0,0.3043 -0.0191,0.58 -0.0575,0.8272 -0.0384,0.244 -0.1071,0.4627 -0.2062,0.656 -0.0959,0.1902 -0.2254,0.355 -0.3885,0.4944 -0.163,0.1395 -0.3692,0.2551 -0.6186,0.3471 -0.2494,0.0887 -0.5467,0.1537 -0.892,0.1949 -0.3453,0.0443 -0.7481,0.0665 -1.2085,0.0665 h -2.1533 c -0.5626,0 -1.0374,-0.0348 -1.4243,-0.1046 -0.3836,-0.0665 -0.7001,-0.1679 -0.9495,-0.3042 -0.2494,-0.1395 -0.4428,-0.3138 -0.5803,-0.5229 -0.1343,-0.2092 -0.2334,-0.4548 -0.2973,-0.7369 -0.0608,-0.2821 -0.0959,-0.6006 -0.1055,-0.9555 -0.0096,-0.355 -0.0144,-0.748 -0.0144,-1.179 0,-0.431 0.0048,-0.824 0.0144,-1.1789 0.0096,-0.355 0.0447,-0.6735 0.1055,-0.9556 0.0639,-0.282 0.163,-0.5277 0.2973,-0.7368 0.1375,-0.2092 0.3309,-0.3819 0.5803,-0.5182 0.2494,-0.1394 0.5659,-0.2424 0.9495,-0.309 0.3869,-0.0697 0.8617,-0.1046 1.4243,-0.1046 h 2.1533 c 0.4604,0 0.8632,0.0222 1.2085,0.0666 0.3453,0.0412 0.6426,0.1061 0.892,0.1949 0.2494,0.0855 0.4556,0.1949 0.6186,0.328 0.1631,0.1331 0.2926,0.29 0.3885,0.4706 0.0991,0.1807 0.1678,0.3851 0.2062,0.6133 0.0384,0.2282 0.0575,0.4817 0.0575,0.7606 z"
     fill="#ffffff"
     id="path19" />
  <path
     d="m 75.3729,32.5269 v 3.6509 c 0,0.4311 -0.0064,0.824 -0.0192,1.179 -0.0096,0.355 -0.0463,0.6735 -0.1103,0.9555 -0.0607,0.2821 -0.1582,0.5277 -0.2925,0.7369 -0.1343,0.2091 -0.3261,0.3835 -0.5755,0.5229 -0.2494,0.1363 -0.5675,0.2377 -0.9543,0.3043 -0.3837,0.0697 -0.8569,0.1045 -1.4195,0.1045 h -2.1581 c -0.5627,0 -1.0374,-0.0348 -1.4243,-0.1045 -0.3836,-0.0666 -0.7002,-0.168 -0.9495,-0.3043 -0.2494,-0.1394 -0.4428,-0.3138 -0.5803,-0.5229 -0.1343,-0.2092 -0.2334,-0.4548 -0.2973,-0.7369 -0.0608,-0.282 -0.096,-0.6005 -0.1055,-0.9555 -0.0096,-0.355 -0.0144,-0.7479 -0.0144,-1.179 v -3.6509 h 0.9207 v 3.6509 c 0,0.4564 0.0032,0.8494 0.0096,1.179 0.0096,0.3264 0.0368,0.6022 0.0816,0.8272 0.0447,0.225 0.115,0.4056 0.211,0.5419 0.0991,0.1363 0.2397,0.2409 0.422,0.3138 0.1822,0.0729 0.4124,0.122 0.6906,0.1473 0.2813,0.0222 0.6266,0.0333 1.0358,0.0333 h 2.1581 c 0.406,0 0.7497,-0.0111 1.031,-0.0333 0.2814,-0.0253 0.5116,-0.0744 0.6906,-0.1473 0.1822,-0.0729 0.3229,-0.1775 0.422,-0.3138 0.0991,-0.1363 0.1711,-0.3169 0.2158,-0.5419 0.048,-0.225 0.0751,-0.5008 0.0815,-0.8272 0.0064,-0.3296 0.0096,-0.7226 0.0096,-1.179 l -0.0048,-3.6509 z"
     fill="#ffffff"
     id="path20" />
  <path
     d="m 64.2026,39.8288 h -0.9208 v -1.3691 c 0,-0.2219 -0.0048,-0.412 -0.0144,-0.5705 -0.0064,-0.1616 -0.0336,-0.2995 -0.0815,-0.4136 -0.0448,-0.114 -0.1167,-0.206 -0.2158,-0.2757 -0.0991,-0.0697 -0.2398,-0.1236 -0.422,-0.1616 -0.1823,-0.038 -0.4141,-0.0634 -0.6954,-0.0761 -0.2782,-0.0158 -0.6219,-0.0237 -1.0311,-0.0237 H 56.683 v 2.8903 h -0.9208 v -7.3019 h 5.2129 c 0.5627,0 1.0358,0.0206 1.4195,0.0618 0.3868,0.038 0.705,0.0966 0.9543,0.1758 0.2526,0.0793 0.446,0.1775 0.5803,0.2948 0.1375,0.1173 0.2366,0.2551 0.2973,0.4136 0.064,0.1584 0.1007,0.3359 0.1103,0.5324 0.0128,0.1965 0.0192,0.4136 0.0192,0.6513 0,0.3042 -0.0224,0.572 -0.0671,0.8034 -0.0416,0.2282 -0.1135,0.4231 -0.2158,0.5847 -0.1023,0.1617 -0.2382,0.2916 -0.4077,0.3898 -0.1694,0.0951 -0.382,0.1617 -0.6378,0.1997 0.2558,0.038 0.4604,0.1046 0.6139,0.1997 0.1534,0.095 0.2717,0.2186 0.3548,0.3708 0.0832,0.1521 0.1375,0.3327 0.1631,0.5419 0.0288,0.2092 0.0432,0.4469 0.0432,0.7131 z m -7.5196,-3.651 h 4.2921 c 0.4092,0 0.7529,-0.0063 1.031,-0.019 0.2814,-0.0158 0.5132,-0.0428 0.6954,-0.0808 0.1822,-0.038 0.3229,-0.0919 0.422,-0.1616 0.0991,-0.0698 0.1711,-0.1617 0.2158,-0.2758 0.048,-0.114 0.0752,-0.2503 0.0816,-0.4088 0.0096,-0.1616 0.0143,-0.3534 0.0143,-0.5752 0,-0.206 -0.0047,-0.3835 -0.0143,-0.5324 C 63.4145,33.9752 63.3873,33.85 63.3393,33.7486 63.2946,33.6472 63.2226,33.5664 63.1235,33.5062 63.0244,33.4459 62.8837,33.4 62.7015,33.3683 62.5193,33.3334 62.2875,33.3112 62.0061,33.3017 61.728,33.2922 61.3843,33.2875 60.9751,33.2875 H 56.683 Z"
     fill="#ffffff"
     id="path21" />
  <path
     d="m 53.3435,32.5269 v 0.7606 h -3.683 v 6.5413 h -0.9208 v -6.5413 h -3.6831 v -0.7606 z"
     fill="#ffffff"
     id="path22" />
  <path
     d="m 39.6073,35.7212 c 0.5052,0 0.9384,0.0206 1.2996,0.0618 0.3613,0.0412 0.665,0.103 0.9112,0.1854 0.2494,0.0793 0.4476,0.1791 0.5947,0.2995 0.147,0.1205 0.2605,0.2583 0.3405,0.4136 0.0799,0.1522 0.131,0.3233 0.1534,0.5134 0.0256,0.1902 0.0384,0.3962 0.0384,0.618 0,0.2219 -0.0208,0.4311 -0.0624,0.6276 -0.0383,0.1933 -0.1087,0.3708 -0.211,0.5324 -0.1023,0.1616 -0.2413,0.3058 -0.4172,0.4326 -0.1758,0.1268 -0.3996,0.2345 -0.6714,0.3233 -0.2717,0.0887 -0.5994,0.1553 -0.9831,0.1996 -0.3804,0.0476 -0.8264,0.0713 -1.338,0.0713 h -1.2277 c -0.4603,0 -0.8632,-0.0174 -1.2085,-0.0523 -0.3452,-0.0348 -0.6426,-0.0871 -0.892,-0.1568 -0.2493,-0.0729 -0.4555,-0.1633 -0.6186,-0.271 -0.163,-0.1109 -0.2941,-0.2393 -0.3932,-0.3851 -0.0959,-0.1489 -0.1631,-0.3169 -0.2015,-0.5039 -0.0383,-0.1901 -0.0575,-0.3993 -0.0575,-0.6275 h 0.9208 c 0,0.2852 0.0415,0.5087 0.1247,0.6703 0.0831,0.1616 0.2206,0.2836 0.4124,0.366 0.1918,0.0793 0.4428,0.13 0.7529,0.1522 0.3133,0.019 0.7002,0.0285 1.1605,0.0285 h 1.2277 c 0.5371,0 0.9831,-0.0254 1.338,-0.0761 0.3549,-0.0507 0.6378,-0.1315 0.8488,-0.2424 0.2111,-0.1109 0.3597,-0.2551 0.446,-0.4326 0.0864,-0.1807 0.1295,-0.3993 0.1295,-0.6561 0,-0.2567 -0.0303,-0.4706 -0.0911,-0.6417 C 41.8757,37 41.759,36.8638 41.5831,36.7623 41.4105,36.6609 41.1659,36.5896 40.8494,36.5484 40.5329,36.504 40.1189,36.4819 39.6073,36.4819 h -1.266 c -0.5627,0 -1.0455,-0.0206 -1.4483,-0.0618 -0.3997,-0.0412 -0.7354,-0.0999 -1.0071,-0.1759 -0.2718,-0.0793 -0.4892,-0.1759 -0.6522,-0.29 -0.1631,-0.1173 -0.2878,-0.2504 -0.3741,-0.3993 -0.0831,-0.149 -0.1375,-0.3138 -0.163,-0.4944 -0.0256,-0.1839 -0.0384,-0.3819 -0.0384,-0.5943 0,-0.2218 0.0192,-0.4278 0.0576,-0.618 0.0415,-0.1901 0.1166,-0.3613 0.2253,-0.5134 0.1087,-0.1553 0.2574,-0.2932 0.446,-0.4136 0.1887,-0.1204 0.4301,-0.2203 0.7242,-0.2995 0.2973,-0.0824 0.6538,-0.1442 1.0694,-0.1854 0.4156,-0.0412 0.9048,-0.0618 1.4675,-0.0618 h 0.9208 c 0.4603,0 0.8632,0.0174 1.2085,0.0523 0.3452,0.0317 0.6426,0.084 0.8919,0.1569 0.2494,0.0697 0.4556,0.1584 0.6187,0.2662 0.1662,0.1046 0.2973,0.2314 0.3932,0.3803 0.0991,0.1458 0.1679,0.3122 0.2062,0.4992 0.0384,0.187 0.0576,0.3945 0.0576,0.6227 h -0.9208 c 0,-0.2852 -0.0415,-0.5086 -0.1247,-0.6703 -0.0831,-0.1616 -0.2206,-0.282 -0.4124,-0.3613 -0.1918,-0.0824 -0.4444,-0.1331 -0.7577,-0.1521 -0.3133,-0.0222 -0.7002,-0.0333 -1.1605,-0.0333 h -0.9208 c -0.6139,0 -1.119,0.0222 -1.5154,0.0666 -0.3965,0.0412 -0.7098,0.1125 -0.94,0.2139 -0.2302,0.1014 -0.39,0.2377 -0.4796,0.4088 -0.0895,0.1712 -0.1342,0.3851 -0.1342,0.6418 0,0.1585 0.0112,0.2995 0.0335,0.4231 0.0224,0.1236 0.0672,0.233 0.1343,0.328 0.0704,0.0919 0.1679,0.1696 0.2926,0.233 0.1246,0.0634 0.2893,0.1156 0.4939,0.1568 0.2046,0.0412 0.454,0.0714 0.7481,0.0904 0.2974,0.0158 0.6506,0.0237 1.0599,0.0237 z"
     fill="#ffffff"
     id="path23" />
  <path
     d="m 23.8663,39.8288 h -0.9207 v -7.3019 h 1.6161 l 6.7523,6.3892 v -6.3892 h 0.9207 v 7.3019 H 31.007 l -7.1407,-6.5413 z"
     fill="#ffffff"
     id="path24" />
  <path
     d="m 17.1559,32.3745 c 0.5627,0 1.0359,0.0349 1.4195,0.1046 0.3869,0.0666 0.705,0.1696 0.9544,0.309 0.2493,0.1363 0.4412,0.309 0.5755,0.5182 0.1342,0.2091 0.2317,0.4548 0.2925,0.7368 0.0639,0.2821 0.1007,0.6006 0.1103,0.9556 0.0128,0.3549 0.0192,0.7479 0.0192,1.1789 0,0.431 -0.0064,0.824 -0.0192,1.179 -0.0096,0.3549 -0.0464,0.6734 -0.1103,0.9555 -0.0608,0.2821 -0.1583,0.5277 -0.2925,0.7369 -0.1343,0.2091 -0.3262,0.3834 -0.5755,0.5229 -0.2494,0.1363 -0.5675,0.2377 -0.9544,0.3042 -0.3836,0.0698 -0.8568,0.1046 -1.4195,0.1046 H 14.384 c -0.5627,0 -1.0374,-0.0348 -1.4243,-0.1046 -0.3836,-0.0665 -0.7001,-0.1679 -0.9495,-0.3042 -0.2494,-0.1395 -0.4428,-0.3138 -0.5803,-0.5229 -0.1343,-0.2092 -0.2334,-0.4548 -0.2973,-0.7369 -0.0608,-0.2821 -0.0959,-0.6006 -0.1055,-0.9555 -0.0096,-0.355 -0.0144,-0.748 -0.0144,-1.179 0,-0.431 0.0048,-0.824 0.0144,-1.1789 0.0096,-0.355 0.0447,-0.6735 0.1055,-0.9556 0.0639,-0.282 0.163,-0.5277 0.2973,-0.7368 0.1375,-0.2092 0.3309,-0.3819 0.5803,-0.5182 0.2494,-0.1394 0.5659,-0.2424 0.9495,-0.309 0.3869,-0.0697 0.8616,-0.1046 1.4243,-0.1046 z m 0,6.8456 c 0.4061,0 0.7481,-0.0111 1.0263,-0.0333 0.2813,-0.0253 0.5131,-0.0745 0.6954,-0.1474 0.1822,-0.0728 0.3229,-0.1774 0.422,-0.3137 0.0991,-0.1363 0.171,-0.3169 0.2158,-0.5419 0.0447,-0.2251 0.0703,-0.5008 0.0767,-0.8272 0.0096,-0.3296 0.0144,-0.7226 0.0144,-1.179 0,-0.4564 -0.0048,-0.8478 -0.0144,-1.1742 -0.0064,-0.3296 -0.032,-0.6069 -0.0767,-0.8319 -0.0448,-0.225 -0.1167,-0.4057 -0.2158,-0.542 -0.0991,-0.1362 -0.2398,-0.2408 -0.422,-0.3137 -0.1791,-0.0729 -0.4093,-0.1205 -0.6906,-0.1426 -0.2782,-0.0254 -0.6218,-0.0381 -1.0311,-0.0381 H 14.384 c -0.4092,0 -0.7545,0.0127 -1.0358,0.0381 -0.2782,0.0221 -0.5084,0.0697 -0.6906,0.1426 -0.1822,0.0729 -0.3229,0.1775 -0.422,0.3137 -0.0991,0.1363 -0.1711,0.317 -0.2158,0.542 -0.0448,0.225 -0.0704,0.5023 -0.0767,0.8319 -0.0064,0.3264 -0.0096,0.7178 -0.0096,1.1742 0,0.4564 0.0032,0.8494 0.0096,1.179 0.0095,0.3264 0.0367,0.6021 0.0815,0.8272 0.0447,0.225 0.1151,0.4056 0.211,0.5419 0.0991,0.1363 0.2398,0.2409 0.422,0.3137 0.1822,0.0729 0.4124,0.1221 0.6906,0.1474 0.2813,0.0222 0.6266,0.0333 1.0358,0.0333 z"
     fill="#ffffff"
     id="path25" />
  <path
     d="m 7.97517,34.8085 c 0,-0.3803 -0.04156,-0.6814 -0.12469,-0.9032 C 7.76736,33.6834 7.62988,33.5154 7.43806,33.4013 7.24623,33.2873 6.99366,33.2144 6.68034,33.1827 6.37022,33.151 5.98497,33.1351 5.52459,33.1351 H 3.37134 c -0.40923,0 -0.75451,0.0127 -1.03586,0.0381 -0.27815,0.0221 -0.50834,0.0697 -0.69057,0.1426 -0.18224,0.0729 -0.32291,0.1775 -0.42202,0.3137 -0.09911,0.1363 -0.17104,0.317 -0.2158,0.542 -0.044762,0.225 -0.070339,0.5023 -0.076733,0.8319 -0.006395,0.3264 -0.009592,0.7178 -0.009592,1.1742 0,0.4564 0.003197,0.8494 0.009592,1.179 0.009591,0.3264 0.036766,0.6021 0.081523,0.8272 0.04476,0.225 0.1151,0.4056 0.21101,0.5419 0.09911,0.1363 0.23978,0.2409 0.42202,0.3137 0.18223,0.0729 0.41242,0.1221 0.69057,0.1474 0.28135,0.0222 0.62663,0.0333 1.03586,0.0333 h 2.15325 c 0.35808,0 0.6666,-0.0095 0.92556,-0.0285 0.25897,-0.019 0.47957,-0.0539 0.6618,-0.1046 0.18224,-0.0507 0.3293,-0.1204 0.4412,-0.2092 0.1119,-0.0887 0.19822,-0.1996 0.25897,-0.3328 0.06394,-0.1362 0.1071,-0.2979 0.12948,-0.4848 0.02238,-0.1902 0.03357,-0.4121 0.03357,-0.6656 h 0.92077 c 0,0.3043 -0.01919,0.58 -0.05755,0.8272 -0.03837,0.244 -0.10711,0.4627 -0.20622,0.656 C 8.53626,39.068 8.40678,39.2328 8.24373,39.3722 8.08067,39.5117 7.87446,39.6273 7.62509,39.7193 7.37571,39.808 7.07838,39.873 6.7331,39.9142 6.38781,39.9585 5.98497,39.9807 5.52459,39.9807 H 3.37134 c -0.56269,0 -1.03746,-0.0348 -1.42431,-0.1046 C 1.56338,39.8096 1.24687,39.7082 0.997496,39.5719 0.748122,39.4324 0.554697,39.2581 0.417222,39.049 0.282943,38.8398 0.183833,38.5942 0.119891,38.3121 0.0591464,38.03 0.0239783,37.7115 0.014387,37.3566 0.00479565,37.0016 0,36.6086 0,36.1776 c 0,-0.431 0.00479565,-0.824 0.014387,-1.1789 0.0095913,-0.355 0.0447594,-0.6735 0.105504,-0.9556 0.063942,-0.282 0.163052,-0.5277 0.297331,-0.7368 0.137475,-0.2092 0.3309,-0.3819 0.580274,-0.5182 0.249374,-0.1394 0.565884,-0.2424 0.949534,-0.309 0.38685,-0.0697 0.86162,-0.1046 1.42431,-0.1046 h 2.15325 c 0.46038,0 0.86322,0.0222 1.20851,0.0666 0.34528,0.0412 0.64261,0.1061 0.89199,0.1949 0.24937,0.0855 0.45558,0.1949 0.61864,0.328 0.16305,0.1331 0.29253,0.29 0.38844,0.4706 0.09911,0.1807 0.16785,0.3851 0.20622,0.6133 0.03836,0.2282 0.05755,0.4817 0.05755,0.7606 z"
     fill="#ffffff"
     id="path26" />
</svg>
